<svg xmlns="http://www.w3.org/2000/svg" viewBox="0 0 43.8 55.6"><defs><style>.cls-1{isolation:isolate;}.cls-2{fill:#e9a57e;}.cls-3{fill:#9ab7b6;}.cls-4{fill:#d0e2e2;}.cls-5{fill:#fcfaf5;}.cls-6{fill:#ce8763;}.cls-7{fill:#ecb78f;}.cls-8{fill:#f1ceab;}.cls-9{fill:#bd7752;}.cls-10{fill:#54271d;}.cls-11,.cls-16{fill:#fff;}.cls-12,.cls-17{fill:#f0e2db;mix-blend-mode:screen;}.cls-12,.cls-16,.cls-21{opacity:0.5;}.cls-13{fill:#df6759;}.cls-14{fill:#c36e4a;}.cls-15{fill:#a63e30;}.cls-17{opacity:0.14;}.cls-18{fill:#f5f0e5;}.cls-19{fill:#e9d9d9;}.cls-20{fill:#aeba68;}.cls-21{fill:#423436;mix-blend-mode:multiply;}.cls-22{fill:#fffff1;}.cls-23{fill:#120e0c;}.cls-24{fill:#33110f;}.cls-25{fill:#1e1916;}</style></defs><g class="cls-1"><g id="Layer_2" data-name="Layer 2"><g id="Ñëîé_1" data-name="Ñëîé 1"><path class="cls-2" d="M5.94,31.19S5.43,27,2.17,28.53-.75,37,3.76,38.15C7.8,39.18,5.94,31.19,5.94,31.19Z"/><path class="cls-3" d="M4.74,39c0,1.24-.42,2.24-.93,2.24s-.94-1-.94-2.24.42-2.24.94-2.24S4.74,37.73,4.74,39Z"/><path class="cls-4" d="M4.57,39.2c0,1.1-.38,2-.85,2s-.85-.9-.85-2,.38-2,.85-2S4.57,38.09,4.57,39.2Z"/><path class="cls-5" d="M3.66,39c0,.64-.14,1.15-.31,1.15S3,39.6,3,39s.14-1.15.31-1.15S3.66,38.33,3.66,39Z"/><path class="cls-6" d="M2.12,29.51c.81-.87,2.85-.35,2.94,2.91S2.93,36.64,2.39,36.1s.35-3.3,1.1-3.3S3.72,29,1.85,31.09C.31,32.82,1.2,30.49,2.12,29.51Z"/><path class="cls-7" d="M38.5,34.35S38,21.4,34.72,17.7C31.86,14.5,24,13.27,21.91,13.84c-2.11-.57-10.06-1.16-12.91,2-3.32,3.7-3.69,18.47-3.69,18.47S4.16,42,8.32,46.69s11.05,8.92,14.19,8.91c2.81,0,8.84-4.23,13-8.91S38.5,34.35,38.5,34.35Z"/><path class="cls-8" d="M38.5,34.35S38,21.4,34.72,17.7A6.06,6.06,0,0,0,30.9,16,7.85,7.85,0,0,1,34,18.17c2.89,3.7,3.29,16.68,3.29,16.68s1,7.64-2.62,12.35c-.51.66-1,1.31-1.57,1.93.83-.78,1.63-1.61,2.37-2.44C39.65,42,38.5,34.35,38.5,34.35Z"/><path class="cls-2" d="M17.83,53.66l-.21-.14,0,0-.17-.12-.05,0-.17-.12,0,0L17,53.06l0,0-.65-.49,0,0-.19-.15,0,0-.17-.13,0-.05L15.64,52l0,0-.19-.16,0,0L15,51.42l0,0-.19-.17-.05,0L14.54,51,14.48,51l-.14-.14-.07-.05-.15-.15,0,0-.17-.17,0,0L13.46,50l-.05-.06-.15-.15-.06-.07-.14-.14L13,49.49l-.12-.14-.07-.08-.13-.14-.07-.07-.15-.18,0,0-.19-.21,0-.06L12,48.41,12,48.33l-.12-.14-.07-.09a.76.76,0,0,1-.11-.14l-.08-.08a.76.76,0,0,0-.11-.14l-.07-.09-.12-.15-.06-.07-.17-.23C7.44,42.49,8.44,34.85,8.44,34.85S13,24.06,15.19,21.24C19.3,16,23.16,16,24.36,16c-1-.12-5.39-4.85-8.29-3.53-2.57-.56-5.94,1.1-7.34,2.68-3.32,3.7-3.42,19.21-3.42,19.21S4.16,42,8.32,46.69s11.05,8.92,14.19,8.91h.2A10.41,10.41,0,0,1,17.83,53.66Z"/><path class="cls-2" d="M28.4,44.92s.45-.31.51-.5.21-.23.35,0-.68.85-.68.85Z"/><path class="cls-9" d="M28.74,44.77a.6.6,0,0,0,.18-.24c0-.14.14-.16.24,0s-.47.59-.47.59Z"/><path class="cls-2" d="M16.07,45.41s-.46-.31-.51-.5-.22-.23-.35,0,.68.85.68.85Z"/><path class="cls-9" d="M15.73,45.25a.52.52,0,0,1-.18-.24c0-.13-.14-.15-.24,0s.47.59.47.59Z"/><path class="cls-10" d="M15.42,45.07l1.51,2.07c.66.9,3.75,1.53,4.29,1.54s6-1.22,6.76-2.28a5.37,5.37,0,0,0,.94-1.73,15.09,15.09,0,0,1-5.49,1.46C17.54,46.52,15.42,45.07,15.42,45.07Z"/><path class="cls-11" d="M16.93,45.87a1.72,1.72,0,0,0,.92,1.24,4.13,4.13,0,0,0,1.43.32,8.91,8.91,0,0,1-1.5-.13.54.54,0,0,0,0,.4,7.26,7.26,0,0,0,4.39,1c2.55-.08,4.1-.61,4.92-1.64,0,0,.05-.47-.08-.4a3.42,3.42,0,0,1-1.4.32s2-.15,2.37-1.72A43.13,43.13,0,0,1,16.93,45.87Z"/><path class="cls-12" d="M15.42,45.07s1.31,1.51,6.57,1.32c5.51-.21,6.93-1.72,6.93-1.72s.1.22-2,.22-3.15-.67-5.05-.63C19.64,44.31,16.19,45.78,15.42,45.07Z"/><path class="cls-13" d="M15.42,45.07s1.31,1.51,6.57,1.32c5.51-.21,6.93-1.72,6.93-1.72s.1.22-2,.22-3.28-.51-5.18-.47C19.51,44.46,16.19,45.78,15.42,45.07Z"/><polygon class="cls-14" points="28.92 44.67 28.92 44.67 28.91 44.67 28.92 44.67"/><path class="cls-15" d="M22,46.25c-3.59.13-5.41-.48-6.24-.91.66.42,2.39,1.19,6.24,1,4-.15,5.87-1,6.57-1.45C27.69,45.4,25.77,46.11,22,46.25Z"/><polygon class="cls-14" points="15.42 45.08 15.42 45.07 15.42 45.08 15.42 45.08"/><path class="cls-2" d="M15.42,45.09s1.74,6.14,6.61,6.14c2.88,0,5.16-1.38,6.89-6.56,0,0-1.27,3.43-6.07,3.95A8,8,0,0,1,15.42,45.09Z"/><path class="cls-15" d="M15.42,45.07s1.74,5.84,6.61,5.84c2.88,0,5.16-1.32,6.89-6.24,0,0-1.27,3.26-6.07,3.76A8.07,8.07,0,0,1,15.42,45.07Z"/><path class="cls-13" d="M15.47,45.23s1.65,5.25,6.52,5.25c2.88,0,5.1-1,6.82-5.58,0,0-1.16,3.07-6,3.53A8.06,8.06,0,0,1,15.47,45.23Z"/><path class="cls-14" d="M28.91,44.68h0Z"/><path class="cls-15" d="M22.72,48.9a7.85,7.85,0,0,0,6-3.68l.22-.54c-.08.19-1.41,3.27-6.06,3.75a8.07,8.07,0,0,1-7.43-3.36,3.26,3.26,0,0,0,.11.33C16,46,18.59,49.23,22.72,48.9Z"/><path class="cls-16" d="M18.61,45.58a15.41,15.41,0,0,1,3.16-.09A13,13,0,0,1,18.61,45.58Z"/><path class="cls-9" d="M24.92,42.48a.75.75,0,0,0,.49-.85c-.12-.64-.46-1.54-1.24-1.5a.74.74,0,0,1,.78,0,2.68,2.68,0,0,1,.64,1.85A.84.84,0,0,1,24.92,42.48Z"/><path class="cls-9" d="M19.27,42.48a.75.75,0,0,1-.49-.85c.11-.64.46-1.54,1.24-1.5a.74.74,0,0,0-.78,0,2.64,2.64,0,0,0-.64,1.85A.84.84,0,0,0,19.27,42.48Z"/><path class="cls-2" d="M24.72,42.38s-.23-1.07-.82-1-.65.84-1.61.83-1.14-.74-1.61-.83-.91,1-.91,1,.53-.57,1-.37a3.68,3.68,0,0,0,1.81.54c.66-.09.82-.71,1.27-.6A3.69,3.69,0,0,1,24.72,42.38Z"/><path class="cls-9" d="M19.77,42.43s.36-.71.83-.55a4.23,4.23,0,0,0,1.94.62c.82-.08,1-.73,1.39-.66a1.36,1.36,0,0,1,.79.54,2.35,2.35,0,0,0-.94-.27,7,7,0,0,1-1.42.52,6.1,6.1,0,0,1-1.48-.4A1,1,0,0,0,19.77,42.43Z"/><path class="cls-17" d="M20.37,39.83s.88-.72,3.31-.26c0,0-.69-2.35-1.24-4.07s-2.54-5.4-1.88-1C21,37.25,21,39.3,20.37,39.83Z"/><path class="cls-2" d="M20.71,39.3s.93-8.27-4.33-13.48l-2.83-.12S20.71,29.36,20.71,39.3Z"/><path class="cls-2" d="M25.31,35.41c0-.68-.84-7.75,3.74-8.63,4.82-.94,7.05,4.34,7.05,4.34Z"/><path class="cls-9" d="M25.31,35.41c0-.47-.23-5.39,3.57-6.4s6.43,2.39,6.43,2.39Z"/><path class="cls-18" d="M25.46,35.47a6.07,6.07,0,0,1,5.1-4.95c3.51-.48,4.92,2.91,3.55,4.37s-5.21,2-8.32.84c0,0-.3.18-.43.09S25.27,35.58,25.46,35.47Z"/><path class="cls-19" d="M34.59,33.07c-.83,4.55-7.55,3-8.12,1.82s1.92-3.42,1.92-3.42l-.46.05a6.51,6.51,0,0,0-2.47,3.95c-.19.11-.18.3-.1.35s.43-.09.43-.09c3.11,1.13,6.94.62,8.32-.84A2.13,2.13,0,0,0,34.59,33.07Z"/><path class="cls-20" d="M33,33.1a3,3,0,1,1-3-3A3,3,0,0,1,33,33.1Z"/><path d="M32,33.21a1.83,1.83,0,1,1-1.83-1.82A1.83,1.83,0,0,1,32,33.21Z"/><path d="M34.49,34.28a2,2,0,0,1-.38.61c-1,1-3.18,1.59-5.49,1.43,5.57,1.07,6.86-2,6.86-2Z"/><path d="M29.72,30c-3.36.69-4,3.82-4.26,4.92-.16.65-.5.75-.32,1s.65-.15.65-.15-.3.18-.43.09-.09-.24.1-.35a5.87,5.87,0,0,1,5.08-4.65c2.32-.31,3.72.91,4,2.21a6.28,6.28,0,0,0,2.21-2.66C34.51,31.65,33.35,29.21,29.72,30Z"/><path class="cls-21" d="M30.19,31.68a4.18,4.18,0,0,1,4.3,2.59,2.73,2.73,0,0,0-.58-2.64,4.35,4.35,0,0,0-3.13-1.13l-.22,0a6.13,6.13,0,0,0-.79.16A5.52,5.52,0,0,0,27,32.36a4.82,4.82,0,0,0-.36.43,7.65,7.65,0,0,0-.54.87,7.06,7.06,0,0,0-.55,1.41c0,.13-.05.23-.07.3a.65.65,0,0,1,0,.1S26.76,31.8,30.19,31.68Z"/><path class="cls-22" d="M30,33.94a.37.37,0,0,1-.26.46.38.38,0,0,1-.47-.26.4.4,0,0,1,.27-.47A.38.38,0,0,1,30,33.94Z"/><path class="cls-22" d="M29,34.05a1.1,1.1,0,1,1-1.35-.77A1.11,1.11,0,0,1,29,34.05Z"/><path class="cls-2" d="M18.53,34.89c0-.68.15-7.8-4.49-8.27-4.89-.5-6.64,5-6.64,5Z"/><path class="cls-9" d="M18.53,34.89c0-.48-.25-5.4-4.13-6.06s-6.19,3-6.19,3Z"/><path class="cls-18" d="M18.39,35a6.08,6.08,0,0,0-5.52-4.48c-3.54-.16-4.64,3.34-3.14,4.67s5.35,1.5,8.36.09c0,0,.31.16.43,0S18.59,35,18.39,35Z"/><path class="cls-19" d="M9.08,33.39c1.24,4.45,7.79,2.31,8.26,1.08s-2.22-3.23-2.22-3.23h.45A6.48,6.48,0,0,1,18.39,35c.2.08.2.27.13.33s-.43,0-.43,0c-3,1.41-6.86,1.24-8.36-.09A2.12,2.12,0,0,1,9.08,33.39Z"/><path class="cls-20" d="M11,33.34a2.9,2.9,0,1,0,2.63-3.16A2.9,2.9,0,0,0,11,33.34Z"/><path d="M12,33.35a1.8,1.8,0,1,0,1.63-2A1.8,1.8,0,0,0,12,33.35Z"/><path d="M9.29,34.58a1.86,1.86,0,0,0,.44.57c1.06.94,3.3,1.3,5.59.93-5.45,1.57-7-1.32-7-1.32Z"/><path d="M13.66,29.86c3.4.39,4.3,3.44,4.68,4.51.22.64.57.71.41,1s-.66-.09-.66-.09.31.16.43,0,.07-.25-.13-.33a5.87,5.87,0,0,0-5.48-4.18c-2.33-.11-3.62,1.24-3.8,2.56a6.21,6.21,0,0,1-2.44-2.45C9,32,10,29.43,13.66,29.86Z"/><path class="cls-21" d="M13.34,31.61a4.15,4.15,0,0,0-4.05,3,2.7,2.7,0,0,1,.34-2.68,4.35,4.35,0,0,1,3-1.41h.23c.28,0,.54.05.8.09A5.55,5.55,0,0,1,16.58,32c.14.13.27.27.39.4a6.31,6.31,0,0,1,.62.82,7.17,7.17,0,0,1,.67,1.35c0,.13.08.22.1.29l0,.11S16.77,31.41,13.34,31.61Z"/><path class="cls-22" d="M13.61,33.58a.37.37,0,1,0,.43-.3A.38.38,0,0,0,13.61,33.58Z"/><path class="cls-22" d="M10.88,33.83a1.09,1.09,0,0,0,.88,1.26A1.09,1.09,0,0,0,12.14,33,1.09,1.09,0,0,0,10.88,33.83Z"/><path class="cls-23" d="M26.78,27.17c-.22.11-1.64,1.08-1.8.88s-.17-1.19.44-1.44A14.23,14.23,0,0,1,37,26.38,15.27,15.27,0,0,0,26.78,27.17Z"/><path class="cls-23" d="M16.76,26.84c.21.08,1.65.89,1.78.68s.07-1.15-.54-1.34A13.69,13.69,0,0,0,6.94,27,14.66,14.66,0,0,1,16.76,26.84Z"/><path class="cls-9" d="M29.53,45.28a2.28,2.28,0,0,0-1.29-1.22,1.84,1.84,0,0,1,1.19.35A.8.8,0,0,1,29.53,45.28Z"/><path class="cls-9" d="M15,45.68a2.28,2.28,0,0,1,1.29-1.22,1.87,1.87,0,0,0-1.2.35A.81.81,0,0,0,15,45.68Z"/><path class="cls-11" d="M23.81,48.92a6.63,6.63,0,0,1-1.09.14h0A1.72,1.72,0,0,0,23.84,49C23.89,49,23.85,48.92,23.81,48.92Z"/><path class="cls-11" d="M26.25,47.85a6.32,6.32,0,0,1-.75.47,7.71,7.71,0,0,1-.92.32.08.08,0,0,0,0,.15,2.67,2.67,0,0,0,1.66-.94Z"/><path class="cls-11" d="M24.35,48.86a.26.26,0,0,0-.29,0,.06.06,0,0,0,0,.09,1.68,1.68,0,0,0,.24-.06S24.37,48.87,24.35,48.86Z"/><path class="cls-11" d="M22.57,39.49a8.36,8.36,0,0,0-1.93.31C20,40.05,21.12,38.56,22.57,39.49Z"/><path class="cls-24" d="M36.51,20.58l-.24.22A1.59,1.59,0,0,0,36.51,20.58Z"/><path class="cls-24" d="M22.82,12.46l-.11.28Z"/><path class="cls-8" d="M37.86,31.67s.51-4.2,3.78-2.66,2.92,8.46-1.6,9.62C36,39.66,37.86,31.67,37.86,31.67Z"/><ellipse class="cls-3" cx="40.02" cy="39.5" rx="0.94" ry="2.24"/><path class="cls-4" d="M39.25,39.74c0,1.1.38,2,.86,2s.85-.9.85-2-.38-2-.85-2S39.25,38.63,39.25,39.74Z"/><path class="cls-5" d="M40.17,39.5c0,.64.14,1.15.31,1.15s.31-.51.31-1.15-.14-1.15-.31-1.15S40.17,38.87,40.17,39.5Z"/><path class="cls-7" d="M41.68,30c-.81-.87-2.85-.35-2.93,2.91s2.12,4.22,2.66,3.68-.35-3.3-1.09-3.3-.24-3.81,1.63-1.71C43.5,33.3,42.6,31,41.68,30Z"/><path class="cls-23" d="M30.67,15.18A12.52,12.52,0,0,0,33,25.24c3.74,5.13,5.71,6.23,5.72,7.66s.48-2.16,1.3-4.08c.55-1.26,1-1.95,2.41-5,.78-1.68,1.36-7.63-1.84-11.34,0,0-1.1-8.8-11.93-9.13,0,0,4.07-.82,3.36-1A5.69,5.69,0,0,0,27.13,3s0-2.63-3.84-3a6.18,6.18,0,0,1,1.07,2.71S15.83-2.71,6.67,4.44A7,7,0,0,1,11.2,3.7,18.35,18.35,0,0,0,1,15.41c-1.29,4.44,1,9.14,2.17,12.14,1.27,3.18,2,5.62,2,5.62s0-10,5.29-15.66C14.52,13.16,30.67,15.18,30.67,15.18Z"/><path d="M4.57,23.36c-1-3.51,1.22-7.95,1.22-7.95-4.62,4.75-1.48,13-1.48,13s-.61-.92-2.46-7A13.36,13.36,0,0,1,2.94,11,19.31,19.31,0,0,0,1,15.41c-1.29,4.44,1,9.14,2.17,12.14,1.27,3.18,2,5.62,2,5.62a32,32,0,0,1,1.39-8.54C5.84,25,5,25,4.57,23.36Z"/><path class="cls-23" d="M30.67,15.18s-1.94,7.1-10.65,9c0,0,2.9-3.32,3.27-5.92a10.45,10.45,0,0,1-4.5,4.19s3.72-4,4.35-6.39S28.2,11.87,30.67,15.18Z"/><path class="cls-23" d="M6.35,25.35A10.35,10.35,0,0,0,14,19.48a35.32,35.32,0,0,1-2.78,4.69A14.69,14.69,0,0,0,24.73,12.74C27.6,1.48,6.3,13.35,6.35,25.35Z"/><path d="M12.45,23.3c1.42-1.42,2.31-6.51,2.31-6.51-3.39,7.33-8.2,7.84-8.2,7.84l-.2.3a3,3,0,0,0,0,.42,10.45,10.45,0,0,0,7-4.75,29,29,0,0,1-2.19,3.57,15,15,0,0,0,10.62-5.38,12.85,12.85,0,0,0,.89-3.07C20.38,22.69,12.45,23.3,12.45,23.3Z"/><path d="M20,24.17a20.62,20.62,0,0,0,10.65-9A14,14,0,0,1,20,24.17Z"/><path d="M40,24.78c.87-3.7-1.28-8.79-1.28-8.79,1.45,6.06.1,13.23-1.74,12.2s-5.64-6-5.7-6.11v0a30.53,30.53,0,0,0,1.82,3.26c3.67,5,5.62,6.13,5.63,7.54s.48-2.16,1.3-4.08c.55-1.26,1-1.95,2.41-5,.78-1.68,1.36-7.63-1.84-11.34C44.56,19.81,40,24.78,40,24.78Z"/><path d="M40.62,12.46s-1.1-8.8-11.93-9.13c0,0,4.07-.82,3.36-1A5.69,5.69,0,0,0,27.13,3s0-2.63-3.84-3a6.18,6.18,0,0,1,1.07,2.71,15.51,15.51,0,0,0-16.15.64C10.69,2,16.27.32,25.77,4.44,25.77,4.44,36.67,1.81,40.62,12.46Z"/><path class="cls-25" d="M10.91,5.05S1.54,9,1.85,18.12C1.85,18.12,2.28,10.29,10.91,5.05Z"/><path class="cls-25" d="M9.07,13.38A11.14,11.14,0,0,0,5.55,24.17,18.72,18.72,0,0,1,9.07,13.38Z"/><path class="cls-25" d="M33.6,5.79s4.25,2.33,5.61,6.44S41.3,8.07,33.6,5.79Z"/></g></g></g></svg>